<?xml version="1.0" encoding="utf-8"?>
<!-- Generator: Adobe Illustrator 21.1.0, SVG Export Plug-In . SVG Version: 6.00 Build 0)  -->
<svg version="1.1" id="Capa_1" xmlns="http://www.w3.org/2000/svg" xmlns:xlink="http://www.w3.org/1999/xlink" x="0px" y="0px"
	 viewBox="0 0 627 397.9" style="enable-background:new 0 0 627 397.9;" xml:space="preserve">
<style type="text/css">
	.st0{fill:#FFFFFF;}
</style>
<g>
	<path class="st0" d="M8.6,389.4c0-126.6,0-252.5,0-379.2c1.9,0,3.7,0,5.5,0c58.3,0,116.7-0.1,175,0c19.4,0,38.6,2.1,57,8.9
		c30.8,11.3,51.5,32,58.4,64.7c5.3,25.1,4.4,49.7-9,72.6c-6.6,11.2-16.3,19.2-27.4,25.7c-2,1.2-4,2.3-6.5,3.7
		c6.5,3.4,12.5,6.3,18.3,9.7c19,11.5,30.9,28.5,35.8,49.7c10,42.9,0.7,81-30.9,112.6c-16.1,16.1-36.2,24.9-58.5,27.9
		c-16.1,2.1-32.5,3.7-48.7,3.8c-54.5,0.5-109,0.2-163.5,0.2C12.3,389.6,10.6,389.5,8.6,389.4z M96.2,323.8c22.1,0,43.6,0.1,65.1-0.1
		c10.8-0.1,21.7-0.2,32.4-1.2c12.8-1.2,24.9-5.1,33.7-15.4c11.9-13.9,13.5-30.3,11.1-47.5c-2.1-15.2-10.8-25.4-24.8-31.2
		c-11.8-4.9-24.3-5.7-36.8-5.8c-25.3-0.1-50.7,0-76,0c-1.6,0-3.2,0.2-4.7,0.2C96.2,256.7,96.2,290,96.2,323.8z M96.2,159.4
		c1.6,0.1,2.9,0.3,4.2,0.3c25,0,50,0.1,75-0.1c6.8-0.1,13.7-0.5,20.4-1.8c16.7-3.3,31.1-9.9,34.7-28.9c1.9-9.7,2.1-19.5-1.6-29.1
		c-3.4-8.9-9.5-15.4-18.7-18c-7.8-2.2-15.9-4.4-23.9-4.6c-29.6-0.8-59.3-0.8-88.9-1.1c-0.3,0-0.6,0.3-1.1,0.5
		C96.2,104.1,96.2,131.6,96.2,159.4z"/>
	<path class="st0" d="M614.4,298.5c-1.7,14.8-8.3,26.6-16.4,37.4c-16.3,21.7-37,37.5-63.4,44.6c-51.9,13.9-100.5,7.7-143.6-26.3
		c-20.9-16.5-32.4-39-37.5-64.7c-7.2-35.9-7.1-71.8,4.8-106.6c14.5-42.5,44.5-69.4,88.2-79.6c38.7-9.1,76.6-5.7,111.8,14.1
		c20.2,11.4,34.2,28.8,44.7,49.2c10.9,21.1,14.3,43.9,15.2,67.1c0.4,9.1,0.1,18.3,0.1,28.1c-65.8,0-131.5,0-197.1,0
		c-0.4,30.2,13.1,52.6,36.7,62c19.1,7.6,38.6,8.2,57.9,0.2c10-4.1,17.8-11,23-20.5c2.1-3.9,4.8-5.1,9.2-5
		c20.2,0.3,40.3,0.1,60.5,0.1C610.2,298.5,611.9,298.5,614.4,298.5z M422.6,214.7c40.7,0,81.1,0,121.5,0c-0.7-33.9-25-57-60.4-57.3
		C447.2,157.1,427.4,179.6,422.6,214.7z"/>
	<path class="st0" d="M406.6,63.6c0-12.7,0-24.8,0-37.3c50.7,0,101.3,0,152.2,0c0,12.3,0,24.7,0,37.3
		C508.1,63.6,457.5,63.6,406.6,63.6z"/>
</g>
</svg>
