<?xml version="1.0" encoding="utf-8"?>
<!-- Generator: Adobe Illustrator 21.1.0, SVG Export Plug-In . SVG Version: 6.00 Build 0)  -->
<svg version="1.1" id="Capa_1" xmlns="http://www.w3.org/2000/svg" xmlns:xlink="http://www.w3.org/1999/xlink" x="0px" y="0px"
	 viewBox="0 0 141 137.5" style="enable-background:new 0 0 141 137.5;" xml:space="preserve">
<style type="text/css">
	.st0{fill:#FFFFFF;}
</style>
<g>
	<path class="st0" d="M79.7,57.4c0-3.1-0.1-5.1,0-7c0.3-3-1-4-3.9-4c-7.2,0.1-14.5,0.1-21.7,0c-3,0-4.1,1.1-4.1,4.2
		c0.1,26.4,0.1,52.7,0,79.1c0,3.1,1,4.3,4.1,4.2c6.7-0.1,13.5,0,20.2,0c5.4,0,5.4-0.1,5.4-5.4c0-15-0.1-30,0.1-45
		c0.1-8.5,6.6-15.1,14.4-15.4c8-0.2,13.7,5.5,14.4,14.5c0.2,2.2,0.2,4.5,0.2,6.7c0,13.2,0.1,26.5,0,39.7c0,3.6,1.3,4.9,4.8,4.8
		c7-0.2,14-0.1,21,0c3,0,4.3-1.2,4.2-4.2c-0.2-7.2-0.3-14.5-0.3-21.7c-0.1-10.1,0.2-20.2-0.2-30.4c-0.7-18-10.8-29.9-27.7-32.7
		C98.4,42.9,88,46.3,79.7,57.4z M5.3,89.7c0,13.2,0.1,26.5,0,39.7c0,3.1,1,4.6,4.3,4.5c7.1-0.1,14.2-0.1,21.3,0
		c3.2,0.1,4.4-1.3,4.4-4.5c-0.1-26.2-0.1-52.4,0-78.6c0-3.5-1.4-4.5-4.8-4.4c-6.7,0.2-13.5,0.2-20.2,0.1c-4.5-0.1-5,0.3-5.1,4.7
		C5.3,64,5.3,76.9,5.3,89.7z M20.5,4.8c-9.6,0-16.8,6.5-16.9,15.3c-0.1,8.7,7.1,15.6,16.6,15.6c9.6,0.1,16.7-6.4,16.8-15.4
		C37.1,11.5,30.1,4.9,20.5,4.8z"/>
	<path class="st0" d="M79.7,57.4c8.3-11.2,18.7-14.5,30.8-12.5c16.8,2.8,26.9,14.7,27.7,32.7c0.4,10.1,0.1,20.2,0.2,30.4
		c0.1,7.2,0.2,14.5,0.3,21.7c0.1,3-1.2,4.3-4.2,4.2c-7-0.1-14-0.1-21,0c-3.5,0.1-4.9-1.2-4.8-4.8c0.1-13.2,0.1-26.5,0-39.7
		c0-2.2,0-4.5-0.2-6.7c-0.7-9.1-6.4-14.8-14.4-14.5c-7.8,0.2-14.3,6.9-14.4,15.4c-0.2,15-0.1,30-0.1,45c0,5.3-0.1,5.4-5.4,5.4
		c-6.7,0-13.5-0.1-20.2,0c-3,0-4.1-1.2-4.1-4.2c0.1-26.4,0.1-52.7,0-79.1c0-3.1,1.1-4.3,4.1-4.2c7.2,0.1,14.5,0.1,21.7,0
		c2.9,0,4.1,1,3.9,4C79.5,52.4,79.7,54.3,79.7,57.4z"/>
	<path class="st0" d="M5.3,89.7c0-12.9,0-25.7,0-38.6c0-4.4,0.6-4.7,5.1-4.7c6.7,0.1,13.5,0.1,20.2-0.1c3.3-0.1,4.8,0.9,4.8,4.4
		c-0.1,26.2-0.1,52.4,0,78.6c0,3.2-1.2,4.5-4.4,4.5c-7.1-0.1-14.2-0.1-21.3,0c-3.3,0.1-4.3-1.4-4.3-4.5C5.4,116.2,5.3,103,5.3,89.7z
		"/>
	<path class="st0" d="M20.5,4.8c9.6,0,16.6,6.7,16.5,15.6c-0.1,8.9-7.2,15.5-16.8,15.4c-9.5-0.1-16.8-6.9-16.6-15.6
		C3.7,11.3,10.9,4.8,20.5,4.8z"/>
</g>
</svg>
