<?xml version="1.0" encoding="utf-8"?>
<!-- Generator: Adobe Illustrator 21.1.0, SVG Export Plug-In . SVG Version: 6.00 Build 0)  -->
<svg version="1.1" id="Capa_1" xmlns="http://www.w3.org/2000/svg" xmlns:xlink="http://www.w3.org/1999/xlink" x="0px" y="0px"
	 viewBox="0 0 174 296" style="enable-background:new 0 0 174 296;" xml:space="preserve">
<style type="text/css">
	.st0{fill:#FFFFFF;}
</style>
<path class="st0" d="M56.1,121.3c-2.8,0-4.6,0-6.4,0c-12,0-24,0.1-36,0c-2.8,0-4.2,0.5-4.3,3.8c-0.2,15.2-0.5,30.3-1,45.5
	c-0.2,4.1,1.3,5.1,5.1,5.1c12.2-0.2,24.3,0.2,36.5-0.1c4.5-0.1,5.5,1.3,5.6,5.7c0.2,34,0.7,68,1,101.9c0,4.2,1,5.8,5.6,5.7
	c13.8-0.3,27.7-0.3,41.5,0c4.8,0.1,6.2-1.2,6.2-6.1c0-27.8,0.3-55.6,0.5-83.5c0-7.8,0-15.5,0-23.8c3,0,4.8,0,6.6,0
	c11,0,22-0.2,33,0.1c4.2,0.1,5.5-1.7,6-5.4c1.5-11.9,3.3-23.7,4.9-35.5c0.5-4,0.8-8,1.3-13.3c-16.1,0-31.3-0.2-46.4,0.1
	c-4.7,0.1-5.5-1.9-5.4-5.9c0.3-11.7,0.4-23.3,0.5-35c0.1-10.3,5.2-17.5,15.5-18.8c10.3-1.3,20.9-1,31.4-1.1c3.7,0,5-1.1,5.1-4.8
	c0.2-13.5,0.6-27,1.1-40.5c0.1-3.6-1.1-5-4.7-5.3c-15.6-1.6-31.2-1.3-46.8,1c-30.9,4.6-50.9,23.5-54.9,54.6
	c-1.9,14.9-1.1,30.2-1.5,45.4C56.1,114.3,56.1,117.4,56.1,121.3z"/>
</svg>
