<?xml version="1.0" encoding="utf-8"?>
<!-- Generator: Adobe Illustrator 21.1.0, SVG Export Plug-In . SVG Version: 6.00 Build 0)  -->
<svg version="1.1" id="Capa_1" xmlns="http://www.w3.org/2000/svg" xmlns:xlink="http://www.w3.org/1999/xlink" x="0px" y="0px"
	 viewBox="0 0 448 179" style="enable-background:new 0 0 448 179;" xml:space="preserve">
<style type="text/css">
	.st0{fill:#FFFFFF;}
</style>
<path class="st0" d="M28.9,66.9c4.8-2.5,10.6-3.8,17.2-3.8c6.1,0,12,1.4,17.6,4.1c1.5,0.7,2.9,1.6,4.2,2.5c0.8,0.6,1.6,1.3,2.5,2
	c8.1,7.2,13.5,18.1,16.2,32.7c0.1,0.7,0.3,2.1,0.3,2.1v44.2c0,3.6,2.8,6.5,6.2,6.5c1.7,0,3.3-0.7,4.4-1.9c1.1-1.2,1.8-2.8,1.8-4.6
	V65.4h11.9v86.9c-0.3,5.4-2.9,9.7-6.8,12.9c-3.1,2.6-7.1,4.2-11.4,4.2c-10,0-18.2-8.4-18.2-18.7v-1.8v-12v-28.7
	c0-4.6-0.6-9.1-1.8-13.3c-1.3-4.1-3.1-7.8-5.4-10.9c-2.3-3.1-5.2-5.5-8.6-7.4c-3.3-1.8-7.2-2.7-11.4-2.7c-4.9,0-9.1,1-12.7,2.9
	c-3.5,1.9-6.5,4.6-8.7,7.9c-2.3,3.3-4,7.3-5,11.7c-1.1,4.5-1.5,9.4-1.3,14.6c0,5.2,0.7,9.8,2.1,13.7c1.4,3.9,3.4,7.3,5.9,10
	c2.5,2.7,5.4,4.8,8.7,6.2c3.3,1.4,7,2.1,11,2.1c4.4,0,8.3-0.9,11.7-2.6c3.4-1.8,6.3-4.2,8.6-7.2c1.5-2,2.8-4.4,3.9-7l0.3-0.8v17.6
	c-0.4,0.4-0.7,0.8-1.1,1.1c-2.3,2.2-4.8,4-7.5,5.5c-2.7,1.4-5.5,2.6-8.4,3.3c-2.9,0.8-5.8,1.2-8.6,1.2c-7,0-13-1.2-17.9-3.5
	c-4.9-2.3-9-5.6-12.2-9.7c-3.2-4.1-5.5-8.9-6.9-14.5c-1.4-5.5-2.1-11.4-2.1-17.7c0-5.9,0.8-11.7,2.3-17.2c1.5-5.5,3.9-10.4,7.1-14.6
	C20,72.7,24,69.4,28.9,66.9 M130.1,70.1c-5.4,4.7-8.1,10.8-8.1,18.1c0,5.8,1.4,10.3,4.2,13.5c2.8,3.2,6.3,5.6,10.4,7.3
	c4.1,1.6,8.5,2.9,13.2,3.7c4.6,0.8,8.9,1.8,12.9,2.9c3.9,1.1,7.1,2.6,9.6,4.5c2.4,1.8,3.6,4.5,3.6,8.3c0,1.9-0.4,3.7-1.2,5.4
	c-0.8,1.7-2,3.3-3.6,4.6c-1.6,1.4-3.6,2.5-6.1,3.3c-2.5,0.8-5.5,1.2-8.9,1.2c-7.1,0-12.6-1.4-16.3-4.3c-3.7-2.8-6.4-7.8-7.8-14.7
	l-0.2-0.9H120l0.1,1.1c0.2,4.1,1.1,8,2.7,11.6c1.6,3.6,3.8,6.8,6.6,9.4c2.8,2.7,6.2,4.8,10.2,6.3c3.9,1.5,8.5,2.3,13.6,2.3
	c5,0,9.8-0.5,14-1.6c4.3-1.1,8-2.7,11.2-4.8c3.2-2.1,5.7-4.9,7.5-8.1c1.8-3.2,2.7-7,2.7-11.2c0-5.7-1.4-10.2-4.2-13.4
	c-2.8-3.1-6.2-5.7-10.4-7.5c-4.1-1.8-8.5-3.2-13.2-4.2c-4.6-1-9-2.1-12.9-3.3c-3.9-1.2-7.1-2.8-9.7-4.7c-2.4-1.8-3.6-4.4-3.6-7.8
	c0-4,1.5-7.2,4.5-9.7c3-2.5,7.6-3.7,13.5-3.7c5.9,0,10.9,1.3,14.8,3.8c3.8,2.5,5.9,6.8,6.9,12.9c1.5,9.4,5.5,15.4,14.5,18.4
	c-0.1-3.4,0-7,1-12c-1.8-1.7-2.7-3.4-3.5-6.6c-2.5-9.5-4.8-16.9-10.8-21.1c-5.8-4.2-13.5-6.3-22.8-6.3
	C143,63.1,135.4,65.4,130.1,70.1 M214.5,66.7c-4.9,2.4-9.1,5.7-12.5,9.9c-3.4,4.1-6,9-7.8,14.6c-0.8,2.5-0.9,2.7-1.4,5
	c-0.7,3.2-0.8,4.3-0.8,4.3c-0.4,2.5-0.5,5.4-0.5,7.3c0,0,0,0.9,0,1.2c0,6.3,0.8,12.2,2.3,17.6c1.5,5.5,4,10.3,7.2,14.3
	c3.2,4.1,7.4,7.3,12.4,9.7c5,2.3,11,3.5,17.8,3.5c5.4,0,10.2-0.7,14.3-2.2c4.1-1.4,7.7-3.5,10.8-6.1c3-2.6,5.5-5.7,7.5-9.2
	c2-3.5,3.6-7.3,4.8-11.4l0.4-1.4h-13.2l-0.2,0.8c-1.4,5.9-4.4,10.5-8.7,13.7c-4.3,3.2-9.7,4.8-15.8,4.8c-4.5,0-8.5-0.9-11.9-2.6
	c-3.4-1.7-6.3-4-8.5-6.9c-2.2-2.9-3.9-6.3-5.1-10.2c-0.8-2.6-1.3-5.3-1.5-8.2c-0.4-2.6-0.8-7.3-0.2-12.2c0,0,0.3-5.3,2.7-11.4
	c1.4-3.4,3.2-6.5,5.4-9.1c2.2-2.6,5-4.7,8.1-6.2c3.1-1.5,6.8-2.3,11-2.3c4.2,0,7.9,0.8,11.1,2.3c3.2,1.5,5.9,3.5,8,6.1
	c2.1,2.5,3.8,5.6,4.8,9.1c0.7,2.1,1.1,4.3,1.4,6.6c0.1,0.7,0.1,2-0.6,2.8c-0.5,0.6-1.4,0.9-2.6,0.9h-46.3c-0.7,3.7-0.6,7.4-0.4,10.3
	h52.1c6.7,0,10.5-0.4,10.5-9.3c0-10.1-3.3-19.5-9.7-27.2c-6.8-8.2-16.3-12.3-28.1-12.3C225,63.1,219.3,64.3,214.5,66.7 M381.8,66.7
	c-5,2.4-9.2,5.7-12.6,9.7c-3.3,4-5.8,8.9-7.4,14.4c-1.6,5.5-2.4,11.5-2.4,17.7l-0.2,42.1c0,3.6-2.8,6.5-6.2,6.5
	c-3.4,0-6.2-2.9-6.2-6.5l-0.1-15.9V95.5c0-3.5-0.2-6.9-0.6-10.1c-0.4-3.4-1.7-6.7-3.8-9.8c-3.1-4.6-7.1-7.9-11.7-9.7
	c-4.6-1.8-9.6-2.8-14.9-2.8c-6,0-11.3,1.4-15.6,4.1c-3.6,2.2-7.1,5-10.5,8.4V65.4h-11.9v86.3h11.9v-46.4c0-2.9,0.1-5.6,0.3-8
	c0.2-2.4,0.8-4.9,1.7-7.5c0.7-2.1,1.8-4,3.1-5.9c1.3-1.9,3-3.5,4.9-5c1.9-1.4,4.1-2.6,6.5-3.5c2.4-0.9,5-1.3,7.9-1.3
	c7.4,0,12.8,1.8,15.9,5.3c3.2,3.6,4.8,9.1,4.8,16.4v54.9c0,10.3,8.2,18.7,18.2,18.7c9.9,0,18-8.3,18.2-18.4v-40.1
	c0-13.5,3.5-23.5,10.4-29.8c1.6-1.6,3.4-2.9,5.5-4.1c3.5-1.9,7.7-2.9,12.6-2.9c4.9,0,9.1,1,12.6,2.9c3.5,1.9,6.3,4.5,8.5,7.6
	c2.2,3.2,3.8,6.9,4.9,11c0.2,0.6,0.7,3.1,0.7,3.1c0.5,3.2,0.9,6.5,0.9,9.9c0,4.4-0.5,8.8-1.6,12.9c-1.1,4.1-2.7,7.8-4.9,11
	c-2.2,3.2-5,5.8-8.5,7.7c-3.4,1.9-7.7,2.9-12.6,2.9c-4.9,0-9.1-1-12.6-2.9c-3.5-1.9-6.3-4.5-8.5-7.7c-2.1-3-3.4-6.5-4.5-10.3v22.6
	c2.8,2.4,5.7,4.4,9.1,5.9c4.9,2.2,10.5,3.3,16.4,3.3c6,0,11.5-1.1,16.4-3.3c4.9-2.2,9.2-5.3,12.7-9.3c3.5-4,6.2-8.8,8.1-14.3
	c1.9-5.5,2.8-11.7,2.8-18.6c0-6.2-0.8-12.2-2.4-17.7c-1.6-5.5-4.1-10.4-7.4-14.4c-3.3-4.1-7.6-7.3-12.6-9.7c-5-2.4-11-3.6-17.7-3.6
	C392.8,63.1,386.8,64.3,381.8,66.7 M75,32.5v40c4.7,5.1,9,12.1,12,21.9V32.5H75z M99.4,42h11.9v-9.5H99.4V42z M277.7,42h68.9v-9.5
	h-68.9V42z M126.7,42V27.7h12.5V42h6.7V9.9h-6.7v12.3h-12.5V9.9H120V42H126.7z M175.1,38.9c3.2-3,4.7-7.3,4.7-12.9
	c0-5.7-1.6-10.1-4.7-12.9c-2.4-2.4-5.8-3.7-10.3-3.7c-4.5,0-7.9,1.2-10.3,3.7c-3.2,2.9-4.8,7.2-4.8,12.9c0,5.6,1.6,9.9,4.8,12.9
	c2.4,2.4,5.8,3.7,10.3,3.7C169.3,42.6,172.7,41.3,175.1,38.9 M171,34.1c-1.5,1.9-3.6,2.9-6.2,2.9c-2.6,0-4.7-1-6.2-2.9
	c-1.5-1.9-2.3-4.6-2.3-8.2c0-3.5,0.8-6.3,2.3-8.2c1.5-1.9,3.6-2.9,6.2-2.9c2.6,0,4.7,1,6.2,2.9c1.5,1.9,2.3,4.6,2.3,8.2
	C173.3,29.5,172.5,32.2,171,34.1 M194.5,23.9l-6.7-14h-7.9L191,30V42h6.7V30l10.8-20.1h-7.6L194.5,23.9z M243.7,42v-2.6h-18.8V26.7
	h16.6v-2.6h-16.6V12.5h18.4V9.9h-21.4V42H243.7z M246.1,32.3c0,1.7,0.3,3.2,0.9,4.5c0.6,1.3,1.4,2.3,2.4,3.2c1,0.9,2.2,1.5,3.6,1.9
	c1.4,0.4,2.9,0.6,4.6,0.6c3.6,0,6.5-0.8,8.5-2.4c2-1.6,3-3.9,3-6.8c0-1.5-0.3-2.8-0.8-3.8c-0.5-1-1.2-1.8-2-2.5
	c-0.8-0.6-1.8-1.2-2.9-1.5c-1.1-0.4-2.2-0.7-3.4-1c-1.2-0.3-2.3-0.5-3.4-0.8c-1.1-0.2-2.2-0.6-3.1-1c-0.9-0.4-1.7-0.9-2.4-1.5
	c-0.6-0.6-1.1-1.4-1.2-2.5c-0.1-0.8-0.1-1.6,0.1-2.5c0.2-0.8,0.7-1.6,1.3-2.2c0.6-0.7,1.4-1.2,2.5-1.6c1-0.4,2.3-0.6,3.8-0.6
	c1,0,2,0.1,2.9,0.4c0.9,0.3,1.8,0.7,2.5,1.2c0.7,0.6,1.3,1.3,1.7,2.1c0.4,0.9,0.6,1.9,0.6,3.1h2.8c0-1.3-0.2-2.5-0.7-3.6
	c-0.4-1.1-1.1-2.1-2-3c-0.9-0.9-2-1.5-3.3-2c-1.3-0.5-2.9-0.7-4.7-0.7c-1.8,0-3.3,0.2-4.6,0.7c-1.3,0.5-2.5,1.1-3.3,1.9
	c-0.9,0.8-1.6,1.7-2,2.7c-0.5,1-0.7,2.1-0.7,3.2c0,1.5,0.3,2.8,0.8,3.8c0.6,1,1.3,1.8,2.2,2.5c0.9,0.6,1.9,1.2,3.1,1.5
	c1.2,0.4,2.3,0.7,3.5,1c1.2,0.3,2.4,0.6,3.6,0.9c1.1,0.3,2.2,0.7,3.1,1.2c0.9,0.5,1.6,1.1,2.2,1.9c0.5,0.8,0.8,1.8,0.8,3
	c0,0.9-0.2,1.7-0.5,2.5c-0.3,0.8-0.8,1.5-1.4,2.1c-0.6,0.6-1.5,1.1-2.5,1.4c-1,0.4-2.2,0.5-3.6,0.5c-1.2,0-2.3-0.1-3.4-0.4
	c-1-0.3-2-0.7-2.8-1.3c-0.8-0.6-1.5-1.4-2-2.4c-0.5-1-0.8-2.2-0.9-3.6H246.1z"/>
</svg>
