<svg xmlns="http://www.w3.org/2000/svg" viewBox="0 0 174.88 306.97"><defs><style>.cls-1{fill:#fff;}</style></defs><title>Recurso 3</title><g id="Capa_2" data-name="Capa 2"><g id="recursos"><path class="cls-1" d="M154.49,307a7.44,7.44,0,0,0,3.84-2.51c4.61-4.58,9.06-9.33,13.87-13.69,2.93-2.65,3-4.46.13-7.22-16.59-16.15-33-32.45-49.54-48.67q-39.74-39-79.57-78c-2.7-2.63-2.59-4.27,0-6.85q49.42-48.44,98.69-97c10.45-10.28,20.87-20.58,31.42-30.76,2.07-2,2-3.31,0-5.22C168.11,12.1,162.93,7.15,158,2c-2.61-2.76-4.3-2.47-6.87.09C136.53,16.62,121.73,31,107,45.53Q57.1,94.86,7.19,144.21c-9.48,9.35-9.47,9.22-.66,17.9q51.28,50.47,102.48,101,20.81,20.52,41.63,41C151.81,305.33,152.84,306.72,154.49,307Z"/></g></g></svg>