<svg xmlns="http://www.w3.org/2000/svg" viewBox="0 0 174.88 306.97"><defs><style>.cls-1{fill:#fff;}</style></defs><title>Recurso 2</title><g id="Capa_2" data-name="Capa 2"><g id="recursos"><path class="cls-1" d="M20.39,307a7.44,7.44,0,0,1-3.84-2.51c-4.61-4.58-9.06-9.33-13.87-13.69-2.93-2.65-3-4.46-.13-7.22,16.59-16.15,33-32.45,49.54-48.67q39.74-39,79.57-78c2.7-2.63,2.59-4.27,0-6.85Q82.2,101.59,32.93,53C22.49,42.72,12.06,32.42,1.52,22.24c-2.07-2-2-3.31,0-5.22C6.77,12.1,11.95,7.15,16.86,2c2.61-2.76,4.3-2.47,6.87.09C38.35,16.62,53.15,31,67.84,45.53q49.94,49.32,99.85,98.68c9.48,9.35,9.47,9.22.66,17.9q-51.28,50.47-102.48,101-20.81,20.52-41.63,41C23.07,305.33,22,306.72,20.39,307Z"/></g></g></svg>