<svg xmlns="http://www.w3.org/2000/svg" viewBox="0 0 180.14 178.17"><defs><style>.cls-1{fill:#fff;}</style></defs><title>Recurso 8</title><g id="Capa_2" data-name="Capa 2"><g id="downbar"><path class="cls-1" d="M125.07.1c1,.07,3.63-.18,5.63-.05,17.71,1.14,32.09,8.12,41.45,23.73,4.17,7,6.14,14.65,6.93,22.7,1.76,18.09.74,36.23,1,54.35.16,12.46.38,25-1.93,37.28-4.41,23.54-23.32,39.41-47.42,40-2,.05-4-.06-5.63-.06h-72c-1,0-3.25.12-5.13.06-24-.77-41.55-14.75-47.62-38a14.24,14.24,0,0,1-.25-4v-94a11.17,11.17,0,0,1,.17-3.53C1.71,33.46,3.13,28.34,6,23.73,15.45,8.2,29.74,1.18,47.44,0c2-.13,1.82.05,5.63.05ZM89,162.92c13.83.64,27.62-.16,41.42-.86,16.65-.84,28.53-11.21,31.65-27.47,1.89-9.87,1.21-19.9,1.73-29.84,1-18.12-.12-36.27-.76-54.4-.63-17.85-10-29.41-27.38-33.29-7.65-1.71-15.55-1.69-23.32-1.79-21.3-.26-42.61-.41-63.91.76C31.34,17,19.19,27,16,43.85c-1.83,9.7-1.17,19.57-1.72,29.35-1,18.29.2,36.61.81,54.9.64,19.32,13.77,33,32.49,34C61.4,162.78,75.2,163.57,89,162.92Z"/><path class="cls-1" d="M89.37,43.07C115,43.1,136.14,64,136,89.27c-.12,25.5-21.26,45.91-47.5,45.85-25.37-.05-46.35-20.83-46.4-46C42.07,63.7,63.24,43,89.37,43.07Zm29.73,46a30,30,0,1,0-30.11,30A29.9,29.9,0,0,0,119.1,89.05Z"/><path class="cls-1" d="M148.13,41.13a10.55,10.55,0,1,1-10.4-11C143.24,30,148.14,35.21,148.13,41.13Z"/></g></g></svg>