<svg xmlns="http://www.w3.org/2000/svg" viewBox="0 0 512 383.95"><defs><style>.cls-1{fill:#fff;}</style></defs><title>Recurso 6</title><g id="Capa_2" data-name="Capa 2"><g id="downbar"><path class="cls-1" d="M512,129V255c-2.69,0-1.61,2.2-1.72,3.37-.56,6.3-.89,12.63-1.32,18.94-1.41,20.67-3.89,41.14-12.12,60.42-9.72,22.79-27.24,35.78-51.5,39.21-25.44,3.6-51.15,4-76.78,4.86-56.79,2-113.61,3-170.44,1.26-42.28-1.31-84.65-.77-126.74-6.07-17.68-2.23-33.65-8.06-45.85-21.79-9-10.15-13-22.67-16.55-35.4-5.08-18.45-5.61-37.49-7.17-56.39-.15-1.81,1.35-4.5-1.82-5.41V126c2.61-.09,1.6-2.24,1.71-3.43.55-6,.89-12,1.29-17.93C4.36,84.44,7.08,64.53,15.11,45.74c8.74-20.46,24.21-33,45.79-37.91,12.72-2.9,25.77-3,38.72-3.81C134.38,1.95,169.17,1,204,.49,282.78-.7,361.55,0,440.16,6.15c27.58,2.17,47.43,16.11,57.73,42.4a140.5,140.5,0,0,1,8.05,29.81c2.34,15.15,3.25,30.45,4.27,45.73C510.32,125.74,509.07,128.23,512,129ZM352,192,192.32,96.18V287.78Z"/></g></g></svg>