<?xml version="1.0" encoding="utf-8"?>
<!-- Generator: Adobe Illustrator 21.1.0, SVG Export Plug-In . SVG Version: 6.00 Build 0)  -->
<svg version="1.1" id="Capa_1" xmlns="http://www.w3.org/2000/svg" xmlns:xlink="http://www.w3.org/1999/xlink" x="0px" y="0px"
	 viewBox="0 0 224 184" style="enable-background:new 0 0 224 184;" xml:space="preserve">
<style type="text/css">
	.st0{fill:#FFFFFF;}
</style>
<path class="st0" d="M81,179.4c-0.7,0.1-1.4,0.2-2.2,0.2H62.9c-1.8,0-2.3,0-3.5-0.1c-12.5-1.4-24.6-4.2-36.2-9
	c-6.2-2.6-12.4-5.3-19.1-10.2c24.3,1.3,45.2-4.1,63.6-18.2c-1.6-1.5-3.4-1.2-4.9-1.5c-15.7-2.8-26.9-11.6-33.8-25.9
	c-1.4-3-1.6-4.5,2.6-4.1c4.6,0.4,9.2,0.8,13.9-1.2C22.2,99,8.2,80.4,12.6,65.5c5.5,2.6,11.2,4.5,17.6,4.7c-0.7-2-2.4-2.7-3.6-3.7
	C12.4,53.6,7.9,32.7,15.5,15.2c1.7-3.9,2.7-4.3,5.8-0.9c22.5,25.2,50.6,39.4,84.3,42.8c3.5,0.3,4.6,0,4.1-4
	c-2.5-19,6.8-36.8,23.3-45.5c16.6-8.8,36.7-6.5,50.7,6.2c2.5,2.2,4.6,2.6,7.5,1.8c7.9-2,15.2-5.3,23.7-9.5
	c-3.6,10.4-9.5,17.4-18.2,23.6c8.7,0,15.5-3.5,23.6-5.3c-5.3,7.9-10.9,14-17.6,19c-3,2.3-4.1,4.7-3.9,8.4c0.4,7.5-0.6,15-1.9,22.4
	c-8.9,49.5-45.9,94-101.1,103.7C90.9,178.7,86.3,178.4,81,179.4z"/>
</svg>
