<?xml version="1.0" encoding="utf-8"?>
<!-- Generator: Adobe Illustrator 21.1.0, SVG Export Plug-In . SVG Version: 6.00 Build 0)  -->
<svg version="1.1" id="Capa_1" xmlns="http://www.w3.org/2000/svg" xmlns:xlink="http://www.w3.org/1999/xlink" x="0px" y="0px"
	 viewBox="0 0 344 348" style="enable-background:new 0 0 344 348;" xml:space="preserve">
<style type="text/css">
	.st0{fill:#FFFFFF;}
</style>
<g>
	<path class="st0" d="M184.7,5.3c9,1.6,18.1,2.7,26.9,5c58.9,15.6,98.6,52.5,119.8,109.4c0.2,0.6,0.2,1.3,0.3,2.5
		c-8.5,0-16.8,0.1-25-0.1c-1.1,0-2.5-1.8-3.2-3.1c-3.6-6.7-7-13.6-10.7-20.3c-0.7-1.2-2.4-2.4-3.7-2.5c-8-0.2-16-0.1-24.6-0.1
		c2.1,8.8,4,17.1,6.1,26.1c-8.6,0-16.6,0.2-24.5-0.2c-1.2-0.1-2.7-2.4-3.2-4c-2.2-7.1-4.1-14.4-6.1-21.7c-43.6,0-86.7,0-130.4,0
		c-2,7.2-4.1,14.4-5.9,21.6c-0.8,3.1-2,4.4-5.4,4.3c-7.3-0.2-14.6-0.1-22.6-0.1c2.1-8.9,4.1-17.1,6.2-26.1c-8.8,0-17.2-0.1-25.7,0.1
		c-0.9,0-2.2,1.4-2.7,2.5c-3.6,6.7-7.1,13.6-10.7,20.3c-0.7,1.3-2.1,3.1-3.2,3.1c-8.3,0.3-16.5,0.1-26,0.1c3.8-8.8,6.7-17,10.7-24.5
		C47.8,48.2,88.7,18.1,143.9,7.7c4.9-0.9,9.8-1.6,14.7-2.4C167.3,5.3,176,5.3,184.7,5.3z M119,70.1c35.4,0,69.9,0,104.4,0
		c-3.6-9.5-15.6-23.3-26.5-30.5c-9.3-6.1-19.5-9.7-30.7-7.8C143.7,35.7,130.7,51.5,119,70.1z M245.7,51.7c-0.3,0.4-0.7,0.7-1,1.1
		c2.9,5.3,5.7,10.7,8.6,16c0.4,0.7,1.5,1.5,2.3,1.5c4.2,0.1,8.4,0.1,12.5,0.1c0.2-0.5,0.3-1,0.5-1.5
		C260.9,63.1,253.3,57.4,245.7,51.7z M74.8,68.9c0.3,0.5,0.5,1,0.8,1.5c3.8,0,7.6,0.1,11.4-0.1c1.1-0.1,2.6-0.8,3.2-1.7
		c3-5.2,5.8-10.6,8.7-15.9c-0.3-0.3-0.7-0.7-1-1C90.1,57.4,82.4,63.1,74.8,68.9z"/>
	<path class="st0" d="M158.7,343.3c-7.7-1.3-15.5-2.3-23-4.1c-54.9-13.1-94.3-45.3-118.2-96.4c-2.4-5.1-4.2-10.4-6.6-16.4
		c9.2,0,17.5-0.1,25.7,0.1c1.1,0,2.5,1.8,3.2,3.1c3.7,6.7,7,13.6,10.7,20.3c0.7,1.2,2.4,2.4,3.7,2.5c8,0.2,16,0.1,24.6,0.1
		c-2.1-8.8-4-17.1-6.1-26.1c8.8,0,16.9-0.1,25,0.2c1,0,2.3,2.4,2.7,4c2.1,7.2,4,14.4,6,21.6c43.6,0,86.7,0,130.4,0
		c2-7.2,4.2-14.4,5.9-21.7c0.8-3.2,2.1-4.3,5.4-4.2c7.3,0.2,14.6,0.1,22.5,0.1c-2.1,8.9-4.1,17.1-6.2,26.1c8.6,0,16.9,0.1,25.2-0.1
		c1.1,0,2.6-1.4,3.2-2.5c3.7-6.7,7.1-13.6,10.7-20.3c0.7-1.3,2.1-3,3.2-3.1c8.3-0.3,16.5-0.1,26-0.1c-3.8,8.8-6.7,17-10.7,24.5
		c-28.6,52.9-72.7,83.7-132.5,91.4c-1.6,0.2-3.2,0.7-4.8,1.1C176,343.3,167.3,343.3,158.7,343.3z M119.2,278.6
		c6.6,11.4,14.1,20.9,23.9,28.2c11.2,8.4,23.8,12.9,37.9,9.3c20.3-5.2,32.4-20.1,43.2-37.5C188.9,278.6,154.5,278.6,119.2,278.6z
		 M75.4,278.3c-0.2,0.5-0.4,1-0.6,1.4c7.7,5.7,15.4,11.5,23,17.2c0.3-0.4,0.6-0.8,0.9-1.1c-2.8-5.2-5.5-10.5-8.5-15.7
		c-0.5-0.8-1.7-1.7-2.6-1.8C83.5,278.2,79.5,278.3,75.4,278.3z M268.6,279.7c-0.2-0.5-0.4-1-0.6-1.4c-4.1,0-8.1-0.1-12.2,0.1
		c-0.8,0-1.9,0.7-2.3,1.4c-3,5.4-5.9,10.8-8.9,16.2c0.4,0.3,0.7,0.7,1.1,1C253.3,291.3,260.9,285.5,268.6,279.7z"/>
	<path class="st0" d="M340.7,151.3c-6.7,15-13.7,29.9-20.1,45.1c-2.1,5-5.1,6.2-10,6c-4.9-0.2-9.3,0.3-11.5-6
		c-3-8.6-7.1-16.7-11.1-25.9c-4.3,9.2-8.7,17.4-11.9,26c-2.8,7.5-8.5,5.2-13.6,5.8c-4.7,0.5-6.3-2.4-7.8-6.1
		c-5.7-14-11.5-28-17.2-42c-2.4-5.9-1.6-7.2,4.8-7.1c14.7,0.2,11.4-2.3,16.5,11.6c2.5,6.7,4.8,13.4,7.6,21.1
		c4.1-9.4,7.7-17.9,11.6-26.3c1.1-2.3,2.6-5.6,4.5-6c4.1-0.8,8.6-0.3,12.8,0.2c1,0.1,2,2.5,2.6,4c3.8,8.8,7.5,17.7,11.8,27.8
		c3.1-7.9,5.4-14.9,8.6-21.5c1.9-4,0.9-10.9,8.2-10.8c4.8,0.1,9.5,0.8,14.2,1.2C340.7,149.3,340.7,150.3,340.7,151.3z"/>
	<path class="st0" d="M34.4,179.8c4.4-10.1,8.5-18.8,12.1-27.7c1.6-3.9,3.8-5.5,7.9-5.1c1.5,0.2,3,0.1,4.5,0
		c3.7-0.3,5.8,1.1,7.2,4.7c3.5,8.9,7.4,17.7,11.6,27.5c0.9-2.1,1.5-3.3,2-4.5c2.1-5.4,4.2-10.9,6.3-16.3
		c4.7-12.2,5.5-12.7,18.5-11.3c3.5,0.4,4.8,2,3.3,5.3c-6.8,15.4-13.4,30.8-20.5,46c-0.8,1.8-3.7,3.6-5.6,3.7
		c-14.3,0.3-11.1,1.4-16.2-9.8c-3-6.7-5.9-13.4-8.8-20.1c-0.1-0.3-0.4-0.5-1-1.2c-3.8,8.3-7.4,16.5-11.4,24.5
		c-1.2,2.4-2.9,5.9-4.9,6.3c-4.3,0.9-8.9,0.3-13.3-0.3c-1.1-0.1-2.1-2.4-2.7-3.8c-6-14.3-11.9-28.6-17.7-42.9
		c-2.7-6.5-1.8-7.8,5-7.7c14.2,0.2,11-2.1,16.1,11.5C29.2,165.3,31.6,172,34.4,179.8z"/>
	<path class="st0" d="M150.4,179.8c4.1-9.4,8.3-17.8,11.4-26.4c2.1-5.9,5.9-6.3,11.1-6.5c5.4-0.2,8.1,1.7,9.9,6.7
		c3.1,8.4,6.9,16.5,10.8,25.9c3.5-8.9,6.6-16.6,9.6-24.4c3.4-8.8,2.2-7.9,11.7-8c10.9,0,11,0.2,6.7,10
		c-5.8,13.3-11.8,26.5-17.4,39.8c-1.7,3.9-3.8,6.1-8.2,5.5c-1.5-0.2-3-0.2-4.5,0c-4.4,0.6-6.6-1.5-8.2-5.5
		c-3.5-8.6-7.4-17-11.4-26.3c-4.2,9.1-8.7,17.3-11.9,26c-2.8,7.5-8.5,5.3-13.6,5.8c-4.7,0.5-6.3-2.4-7.8-6.1
		c-5.6-14.1-11.5-28-17.2-42c-2.4-5.9-1.6-7.2,4.8-7.1c14.6,0.2,11.4-2.2,16.5,11.6C145.2,165.4,147.6,172.1,150.4,179.8z"/>
</g>
</svg>
